<?xml version="1.0" standalone="no"?>
<!DOCTYPE svg PUBLIC "-//W3C//DTD SVG 20010904//EN" "http://www.w3.org/TR/2001/REC-SVG-20010904/DTD/svg10.dtd">
<svg version="1.0" xmlns="http://www.w3.org/2000/svg" width="1200.000000pt" height="1200.000000pt" viewBox="0 0 1200.000000 1200.000000" preserveAspectRatio="xMidYMid meet">
    <metadata>
        Created by potrace 1.11, written by Peter Selinger 2001-2013
    </metadata>
    <g transform="translate(0.000000,1200.000000) scale(0.100000,-0.100000)" fill="#000000" stroke="none">
        <path d="M5719 11995 c-2 -1 -42 -6 -89 -9 -47 -4 -96 -9 -110 -11 -14 -2 -50 -6 -80 -9 -30 -4 -66 -9 -80 -11 -14 -2 -61 -9 -105 -15 -44 -6 -93 -14 -110 -16 -32 -5 -61 -9 -135 -19 -57 -8 -219 -41 -285 -57 l-49 -13 1 -220 c1 -121 4 -740 8 -1375 4 -635 8 -1321 10 -1525 9 -938 17 -1953 20 -2400 2 -269 5 -499 8 -510 2 -11 7 -41 11 -66 12 -84 17 -103 46 -191 139 -416 514 -756 935 -847 209 -45 498 -29 713 39 226 73 468 253 630 470 78 104 180 310 197 400 1 3 7 30 13 60 7 30 16 80 21 110 12 72 12 300 0 370 -6 30 -12 68 -15 85 -42 230 -196 510 -371 675 -105 99 -179 152 -298 212 -54 28 -210 85 -253 93 -15 3 -74 18 -132 34 l-105 28 0 394 c0 517 8 594 69 634 54 36 142 24 409 -55 456 -133 792 -327 1096 -631 336 -336 578 -812 650 -1279 22 -141 26 -203 25 -395 0 -229 -17 -367 -69 -570 -49 -191 -79 -275 -150 -420 -179 -368 -504 -736 -853 -963 -254 -166 -744 -348 -1025 -380 -81 -9 -450 -9 -552 1 -69 6 -135 16 -210 31 -204 40 -578 202 -795 343 -341 222 -633 550 -837 941 -23 46 -43 90 -43 98 0 8 -4 22 -9 32 -13 23 -106 314 -121 377 -33 140 -60 323 -76 520 -31 393 -35 953 -9 1485 2 47 7 141 10 210 3 69 8 152 10 185 9 120 16 211 20 260 3 28 8 91 12 140 16 184 2 2090 -22 2995 -6 223 -7 246 -17 255 -7 8 -80 -24 -244 -107 l-140 -71 3 -406 c7 -1094 7 -2783 -1 -2916 -12 -224 -14 -256 -22 -565 -14 -543 -7 -1043 21 -1460 4 -57 8 -111 10 -120 1 -8 6 -55 10 -104 4 -49 8 -98 11 -109 2 -11 6 -43 9 -70 5 -42 31 -195 50 -292 27 -139 127 -403 217 -574 69 -132 164 -281 251 -396 315 -414 752 -740 1227 -915 123 -45 256 -87 304 -96 16 -3 32 -7 36 -9 3 -2 17 -6 31 -9 222 -41 215 -40 344 -53 156 -16 500 -10 635 11 19 3 53 8 75 11 31 4 213 44 270 59 89 24 198 58 240 77 11 4 56 22 100 40 198 77 495 250 675 394 412 330 744 796 909 1278 28 81 48 147 45 147 -2 0 0 9 6 19 5 11 13 37 16 58 3 21 8 41 10 44 2 4 6 24 9 45 4 22 8 46 11 55 2 9 7 32 9 50 3 19 7 45 10 59 3 14 8 52 11 85 3 33 7 76 9 95 11 95 5 433 -9 530 -3 19 -8 55 -11 80 -51 386 -223 823 -464 1175 -119 175 -325 406 -483 542 -199 172 -508 363 -733 453 -44 18 -93 38 -110 45 -36 15 -241 78 -305 93 -89 21 -139 32 -172 37 -18 3 -112 20 -208 38 l-175 32 0 400 c-1 429 5 530 33 584 30 57 72 73 172 67 82 -5 240 -33 425 -75 50 -11 101 -22 115 -24 66 -13 209 -53 340 -97 383 -128 743 -320 1080 -578 69 -53 130 -101 136 -106 7 -6 48 -42 92 -81 99 -86 312 -301 413 -415 41 -46 82 -93 92 -105 36 -40 194 -251 253 -340 286 -424 479 -935 549 -1448 2 -17 6 -48 9 -67 3 -19 8 -66 11 -103 4 -37 9 -78 12 -90 9 -39 12 -549 3 -627 -4 -41 -11 -105 -14 -141 -8 -75 -8 -77 -42 -264 -14 -77 -28 -143 -29 -146 -2 -3 -6 -16 -9 -30 -54 -271 -225 -694 -415 -1026 -165 -290 -369 -553 -636 -818 -383 -383 -808 -661 -1320 -863 -342 -135 -757 -228 -1115 -249 -201 -11 -562 -5 -651 12 -10 2 -46 6 -80 10 -35 4 -66 8 -69 10 -3 1 -27 6 -55 9 -114 16 -302 58 -450 102 -118 36 -312 103 -370 129 -16 7 -71 32 -122 54 -171 75 -404 204 -568 314 -61 41 -246 176 -255 187 -3 3 -25 21 -50 40 -25 19 -50 39 -56 45 -6 5 -47 43 -91 82 -404 365 -699 754 -922 1218 -93 192 -231 539 -246 615 -2 12 -6 29 -9 38 -3 9 -7 33 -10 52 -3 19 -8 46 -10 60 -30 170 -47 551 -61 1385 -5 303 -8 500 -20 1560 -3 286 -8 657 -10 825 -2 168 -7 564 -10 880 -7 560 -11 843 -14 847 -2 3 -326 -329 -516 -528 -123 -129 -246 -271 -365 -422 -8 -11 -20 -24 -26 -31 -71 -77 -454 -644 -454 -672 0 -3 -8 -18 -19 -32 -32 -46 -167 -311 -229 -452 -125 -282 -244 -620 -321 -910 -30 -115 -87 -357 -97 -414 -2 -17 -7 -38 -9 -46 -2 -8 -7 -37 -11 -65 -3 -27 -8 -52 -9 -55 -2 -3 -7 -33 -10 -65 -4 -33 -9 -63 -11 -66 -2 -4 -6 -35 -9 -70 -4 -35 -8 -70 -10 -77 -3 -7 -7 -47 -11 -90 -3 -42 -8 -88 -10 -102 -26 -162 -25 -877 1 -1085 2 -16 7 -61 10 -100 6 -64 19 -172 30 -235 2 -14 7 -45 10 -70 14 -94 67 -358 94 -465 5 -22 17 -68 25 -103 59 -235 167 -554 276 -814 388 -919 998 -1724 1804 -2380 271 -221 672 -475 1036 -656 202 -101 235 -116 335 -158 22 -9 59 -25 82 -35 204 -92 656 -236 968 -308 177 -41 201 -45 325 -62 172 -22 246 -24 910 -24 599 0 826 5 965 19 17 2 64 7 105 11 255 24 639 126 1060 282 96 36 180 68 185 71 6 4 15 7 21 8 6 1 35 13 65 27 30 14 92 42 139 62 159 70 396 191 595 304 477 271 989 681 1371 1097 159 173 382 445 454 554 8 12 33 48 55 79 34 48 81 119 191 291 109 172 275 493 401 780 63 142 180 462 240 655 67 218 153 558 167 665 4 25 9 65 13 90 3 25 7 53 9 63 3 15 8 93 20 297 4 70 4 1132 0 1225 -5 100 -16 266 -21 295 -2 14 -7 45 -10 70 -14 103 -23 148 -50 270 -71 318 -208 740 -352 1080 -159 375 -461 909 -678 1196 -20 27 -46 62 -58 78 -38 51 -170 221 -176 226 -3 3 -26 30 -51 60 -44 54 -70 84 -180 205 -83 91 -305 311 -400 395 -46 41 -91 82 -100 90 -24 24 -298 241 -380 301 -262 194 -660 429 -920 543 -36 16 -90 40 -120 54 -98 44 -116 51 -237 98 -294 115 -815 269 -1036 308 -15 3 -35 7 -45 10 -9 3 -29 7 -44 10 -15 3 -63 11 -105 20 -43 8 -96 18 -118 21 -22 3 -47 7 -55 10 -8 2 -37 6 -65 10 -27 3 -63 8 -80 10 -60 9 -102 14 -210 25 -60 6 -128 13 -150 16 -44 6 -621 15 -626 9z"/>
    </g>
</svg>
